# xmcd CD database file
#
# Track frame offsets:
#	225
#	11595
#	26424
#	39633
#	51643
#	67745
#	84019
#	97533
#	117798
#	129034
#	143597
#	158847
#
# Disc length: 2269 seconds
#
# Revision: 0
# Processed by: cddbd v1.5.2PL0 Copyright (c) Steve Scherf et al.
# Submitted via: CDex 1.51
#
DISCID=8108da0c
DTITLE=Don Preston - Sacré Blues and Bonus Cuts
DYEAR=1997
DGENRE=Blues
TTITLE0=Boogie Woogie Woman
TTITLE1=Looking For My Baby
TTITLE2=Do What You Want
TTITLE3=Come On In My Kitchen
TTITLE4=Farther Up The Road
TTITLE5=I Found Love
TTITLE6=Why Do Things Happen To Me
TTITLE7=Skid Row Blues
TTITLE8=Shake Your Money Maker
TTITLE9=Read Me My Rights (Bonus Cut)
TTITLE10=The Heart I Broke Was Mine (Bonus Cut)
TTITLE11=Sugaree (Bonus Cut)
EXTD=YEAR: 1997
EXTT0=
EXTT1=
EXTT2=
EXTT3=
EXTT4=
EXTT5=
EXTT6=
EXTT7=
EXTT8=
EXTT9=
EXTT10=
EXTT11=
PLAYORDER=
